::Cover:: 
http://img16.imageshack.us/img16/4935/rahulcase.png

::General::
Unique ID                        : 181492461090914086282918199514637632406 (0x888A2D3259FADAF4984F5626CED18396)
Complete name                    : Pitbull & T-Pain - Hey Baby (Drop It To The Floor)  HD 720p(RaHuL {tHe HuNk})[Silver RG]Pitbull & T-Pain - Hey Baby (Drop It To The Floor)  HD 720p(RaHuL {tHe HuNk})[Silver RG].mkv
Format                           : Matroska
File size                        : 108 MiB
Duration                         : 3mn 24s
Overall bit rate                 : 4 408 Kbps
Encoded date                     : UTC 2011-06-18 16:54:10
Writing application              : mkvmerge v4.8.0 ('I Got The...') built on May 24 2011 03:12:58
Writing library                  : libebml v1.2.0 + libmatroska v1.1.0


::Video::
ID                               : 1
Format                           : AVC
Format/Info                      : Advanced Video Codec
Format profile                   : Main@L3.1
Format settings, CABAC           : No
Format settings, ReFrames        : 4 frames
Muxing mode                      : Header stripping
Codec ID                         : V_MPEG4/ISO/AVC
Duration                         : 3mn 24s
Bit rate                         : 4 205 Kbps
Width                            : 1 280 pixels
Height                           : 720 pixels
Display aspect ratio             : 16:9
Frame rate                       : 23.976 fps
Color space                      : YUV
Chroma subsampling               : 4:2:0
Bit depth                        : 8 bits
Scan type                        : Progressive
Bits/(Pixel*Frame)               : 0.190
Stream size                      : 100.0 MiB (93%)
Writing library                  : x264 core 104 r1713 c276662
Encoding settings                : cabac=0 / ref=1 / deblock=0:0:0 / analyse=0:0 / me=dia / subme=0 / psy=1 / psy_rd=0.00:0.00 / mixed_ref=0 / me_range=16 / chroma_me=1 / trellis=0 / 8x8dct=0 / cqm=0 / deadzone=21,11 / fast_pskip=1 / chroma_qp_offset=0 / threads=4 / sliced_threads=0 / nr=0 / decimate=1 / interlaced=0 / constrained_intra=0 / bframes=3 / b_pyramid=2 / b_adapt=0 / b_bias=0 / direct=1 / weightb=0 / open_gop=0 / weightp=2 / keyint=250 / keyint_min=25 / scenecut=0 / intra_refresh=0 / rc=abr / mbtree=0 / bitrate=4205 / ratetol=1.0 / qcomp=0.60 / qpmin=10 / qpmax=51 / qpstep=4 / ip_ratio=1.40 / pb_ratio=1.30 / aq=0


::Audio::
ID                               : 2
Format                           : MPEG Audio
Format version                   : Version 1
Format profile                   : Layer 3
Mode                             : Joint stereo
Mode extension                   : MS Stereo
Muxing mode                      : Header stripping
Codec ID                         : A_MPEG/L3
Codec ID/Hint                    : MP3
Duration                         : 3mn 24s
Bit rate mode                    : Constant
Bit rate                         : 224 Kbps
Channel(s)                       : 2 channels
Sampling rate                    : 44.1 KHz
Compression mode                 : Lossy
Stream size                      : 5.47 MiB (5%)
Writing library                  : LAME3.98.4


:: Trackers :: 
http://exodus.1337x.org/announce 
http://tracker.publicbt.com/announce 
http://genesis.1337x.org:1337/announce 
http://exodus.1337x.org:1337/announce 
http://pow7.com/announce 
http://tracker.publicbt.com:80/announce 
http://tracker.publicbt.com/announce 
http://nemesis.1337x.org/announce

::Screen:: 
http://img683.imageshack.us/img683/6567/pitbulltpainheybabydrop.jpg

::Note::
Make sure its real Silver RG Release From Silvertorrents.me